<svg width="500" height="161" viewBox="0 0 500 161" fill="none" xmlns="http://www.w3.org/2000/svg">
<rect width="500" height="161" fill="#333333"/>
<path d="M115.368 49.608V117H98.952V49.608H115.368ZM203.585 49.608V117H187.169V76.584L172.097 117H158.849L143.681 76.488V117H127.265V49.608H146.656L165.569 96.264L184.289 49.608H203.585ZM257.342 105.096H232.19L228.158 117L210.974 117L235.358 49.608H254.366L278.75 117H261.374L257.342 105.096ZM253.118 92.424L244.766 67.752L236.51 92.424H253.118ZM330.907 70.92C329.691 68.68 327.931 66.984 325.627 65.832C323.387 64.616 320.731 64.008 317.659 64.008C312.347 64.008 308.091 65.768 304.891 69.288C301.691 72.744 300.091 77.384 300.091 83.208C300.091 89.416 301.755 94.28 305.083 97.8C308.475 101.256 313.115 102.984 319.003 102.984C323.035 102.984 326.427 101.96 329.179 99.912C331.995 97.864 334.043 94.92 335.323 91.08H314.491V78.984H350.203V94.248C348.987 98.344 346.907 102.152 343.963 105.672C341.083 109.192 337.403 112.04 332.923 114.216C328.443 116.392 323.387 117.48 317.755 117.48C311.099 117.48 305.147 116.04 299.899 113.16C294.715 110.216 290.651 106.152 287.707 100.968C284.827 95.784 283.387 89.864 283.387 83.208C283.387 76.552 284.827 70.632 287.707 65.448C290.651 60.2 294.715 56.136 299.899 53.256C305.083 50.312 311.003 48.84 317.659 48.84C325.723 48.84 332.507 50.792 338.011 54.696C343.579 58.6 347.259 64.008 349.051 70.92H330.907ZM375.712 62.76V76.392H397.696V89.064H375.712V103.848H400.576V117H359.296V49.608H400.576V62.76H375.712Z" fill="white"/>
</svg>
